<svg width="120" height="120" viewBox="0 0 120 120" fill="none" xmlns="http://www.w3.org/2000/svg">
<path fill-rule="evenodd" clip-rule="evenodd" d="M103.535 31.465C104.472 32.4026 104.999 33.6741 104.999 35C104.999 36.3258 104.472 37.5973 103.535 38.535L88.535 53.535C87.7176 54.3526 86.6422 54.8617 85.4917 54.9756C84.3413 55.0896 83.1869 54.8014 82.225 54.16L67.225 44.16C66.1217 43.424 65.3559 42.2799 65.0962 40.9793C64.8365 39.6787 65.104 38.3283 65.84 37.225C66.576 36.1217 67.7201 35.3559 69.0207 35.0962C70.3212 34.8364 71.6717 35.104 72.775 35.84L84.365 43.565L96.465 31.465C97.4026 30.5276 98.6742 30.001 100 30.001C101.326 30.001 102.597 30.5276 103.535 31.465ZM53.535 61.465C54.4724 62.4026 54.9989 63.6741 54.9989 65C54.9989 66.3258 54.4724 67.5973 53.535 68.535L38.535 83.535C37.5975 84.4727 36.326 84.9997 35 85H15C13.6739 85 12.4021 84.4732 11.4645 83.5355C10.5268 82.5978 10 81.3261 10 80C10 78.6739 10.5268 77.4021 11.4645 76.4644C12.4021 75.5268 13.6739 75 15 75H32.93L46.465 61.465C47.4026 60.5276 48.6742 60.001 50 60.001C51.3258 60.001 52.5974 60.5276 53.535 61.465Z" fill="white"/>
<path fill-rule="evenodd" clip-rule="evenodd" d="M40.8456 36.9309C41.3024 36.2463 41.921 35.685 42.6467 35.2969C43.3724 34.9088 44.1827 34.7057 45.0056 34.7059H70.0056C70.9474 34.7065 71.8698 34.973 72.6667 35.4748C73.4636 35.9766 74.1026 36.6932 74.5101 37.5422C74.9177 38.3912 75.0771 39.338 74.9702 40.2737C74.8632 41.2093 74.4942 42.0957 73.9056 42.8309L57.1306 63.8009L73.0056 75.7059C73.6266 76.1716 74.1306 76.7755 74.4778 77.4698C74.8249 78.1641 75.0056 78.9296 75.0056 79.7059V104.706C75.0056 106.032 74.4789 107.304 73.5412 108.241C72.6035 109.179 71.3317 109.706 70.0056 109.706C68.6796 109.706 67.4078 109.179 66.4701 108.241C65.5324 107.304 65.0056 106.032 65.0056 104.706V82.2059L47.0056 68.7059C46.4699 68.3037 46.0205 67.798 45.6841 67.2187C45.3476 66.6395 45.131 65.9985 45.047 65.3339C44.9631 64.6693 45.0135 63.9947 45.1954 63.3499C45.3772 62.7052 45.6868 62.1036 46.1056 61.5809L59.6056 44.7059H47.6756L39.1606 57.4809C38.4247 58.5842 37.2806 59.3499 35.98 59.6097C34.6794 59.8694 33.3289 59.6018 32.2256 58.8659C31.1223 58.1299 30.3566 56.9858 30.0969 55.6852C29.8371 54.3847 30.1047 53.0342 30.8406 51.9309L40.8406 36.9309H40.8456ZM90.0056 19.7059C90.0056 17.0537 88.9521 14.5102 87.0767 12.6348C85.2013 10.7594 82.6578 9.70587 80.0056 9.70587C77.3535 9.70587 74.8099 10.7594 72.9346 12.6348C71.0592 14.5102 70.0056 17.0537 70.0056 19.7059C70.0056 22.358 71.0592 24.9016 72.9346 26.7769C74.8099 28.6523 77.3535 29.7059 80.0056 29.7059C82.6578 29.7059 85.2013 28.6523 87.0767 26.7769C88.9521 24.9016 90.0056 22.358 90.0056 19.7059Z" fill="white"/>
</svg>
