<svg width="100" height="100" viewBox="0 0 100 100" fill="none" xmlns="http://www.w3.org/2000/svg">
<path d="M50.0008 99.9998C56.5694 100.018 63.0763 98.7326 69.1449 96.2187C75.2134 93.7048 80.723 90.0121 85.3548 85.3544C86.2069 84.502 86.6856 83.346 86.6856 82.1407C86.6856 80.9355 86.2069 79.7795 85.3548 78.9271L56.428 49.9999L85.3548 21.0727C86.2069 20.2203 86.6856 19.0644 86.6856 17.8591C86.6856 16.6538 86.2069 15.4978 85.3548 14.6454C79.5407 8.83101 72.3824 4.54024 64.514 2.15321C56.6455 -0.233822 48.3098 -0.643437 40.2453 0.960651C32.1807 2.56474 24.6363 6.13301 18.2801 11.3494C11.924 16.5658 6.95248 23.2692 3.80589 30.866C0.659295 38.4627 -0.565214 46.7183 0.240828 54.9013C1.04687 63.0844 3.85858 70.9423 8.4269 77.7791C12.9952 84.6159 19.1791 90.2205 26.4309 94.0965C33.6826 97.9724 41.7783 100 50.0008 99.9998ZM50.0008 9.09089C59.2846 9.06419 68.2972 12.2198 75.5368 18.0318L46.7872 46.7863C45.9351 47.6387 45.4564 48.7946 45.4564 49.9999C45.4564 51.2052 45.9351 52.3611 46.7872 53.2135L75.5368 81.968C70.4308 86.0451 64.4225 88.8399 58.0148 90.1183C51.6071 91.3967 44.9863 91.1216 38.7067 89.316C32.4271 87.5105 26.6714 84.227 21.9212 79.7404C17.1711 75.2537 13.5647 69.6945 11.404 63.5281C9.24328 57.3616 8.59106 50.7672 9.50195 44.2969C10.4128 37.8266 12.8603 31.6686 16.6395 26.3384C20.4188 21.0082 25.4198 16.6607 31.224 13.66C37.0282 10.6593 43.4668 9.09251 50.0008 9.09089ZM100 49.9999C100 51.7979 99.4668 53.5555 98.4679 55.0505C97.469 56.5455 96.0492 57.7107 94.3881 58.3988C92.727 59.0869 90.8991 59.2669 89.1357 58.9161C87.3723 58.5653 85.7525 57.6995 84.4811 56.4281C83.2097 55.1568 82.3439 53.5369 81.9931 51.7735C81.6424 50.01 81.8224 48.1821 82.5105 46.521C83.1985 44.8598 84.3637 43.44 85.8587 42.4411C87.3536 41.4422 89.1113 40.909 90.9092 40.909C93.3203 40.909 95.6325 41.8668 97.3374 43.5717C99.0422 45.2766 100 47.5889 100 49.9999ZM31.8193 27.2727C31.8193 25.4747 32.3524 23.717 33.3513 22.222C34.3502 20.7271 35.77 19.5619 37.4312 18.8738C39.0923 18.1857 40.9201 18.0057 42.6836 18.3565C44.447 18.7072 46.0668 19.5731 47.3382 20.8444C48.6095 22.1158 49.4754 23.7357 49.8261 25.4991C50.1769 27.2626 49.9969 29.0905 49.3088 30.7516C48.6207 32.4128 47.4556 33.8326 45.9606 34.8315C44.4656 35.8304 42.708 36.3636 40.91 36.3636C38.499 36.3636 36.1867 35.4058 34.4819 33.7009C32.777 31.996 31.8193 29.6837 31.8193 27.2727Z" fill="white"/>
</svg>
