<svg width="59" height="45" viewBox="0 0 59 45" fill="none" xmlns="http://www.w3.org/2000/svg">
<path d="M29.5 0C13.2013 0 0 10.3234 0 23.0691C0 33.2772 8.44437 41.8993 20.1706 44.9559C21.6456 45.1578 22.1987 44.4657 22.1987 43.8601C22.1987 43.3123 22.1619 41.4956 22.1619 39.5635C14.75 40.6305 12.8325 38.1505 12.2425 36.8529C11.9106 36.1897 10.4725 34.1423 9.21875 33.5944C8.18625 33.1618 6.71125 32.0949 9.18188 32.0661C11.505 32.0372 13.1644 33.7386 13.7175 34.4306C16.3725 37.9198 20.6131 36.9394 22.3094 36.3339C22.5675 34.8344 23.3419 33.8251 24.19 33.2484C17.6263 32.6716 10.7675 30.6819 10.7675 21.858C10.7675 19.3492 11.9106 17.273 13.7913 15.6582C13.4963 15.0814 12.4637 12.7168 14.0862 9.54484C14.0862 9.54484 16.5569 8.93928 22.1987 11.9094C24.5588 11.3904 27.0663 11.1308 29.5738 11.1308C32.0813 11.1308 34.5888 11.3904 36.9488 11.9094C42.5906 8.91044 45.0613 9.54484 45.0613 9.54484C46.6838 12.7168 45.6512 15.0814 45.3563 15.6582C47.2369 17.273 48.38 19.3204 48.38 21.858C48.38 30.7108 41.4844 32.6716 34.9206 33.2484C35.99 33.9693 36.9119 35.3534 36.9119 37.5161C36.9119 40.6016 36.875 43.0816 36.875 43.8601C36.875 44.4657 37.4281 45.1866 38.9031 44.9559C44.7597 43.4103 49.8489 40.4671 53.4541 36.5408C57.0593 32.6145 58.999 27.9028 59 23.0691C59 10.3234 45.7988 0 29.5 0Z" fill="white"/>
</svg>
