<svg width="122" height="122" viewBox="0 0 122 122" fill="none" xmlns="http://www.w3.org/2000/svg">
<path d="M120.971 13.6223C120.244 10.5629 118.681 7.76552 116.458 5.54188C114.234 3.31824 111.437 1.75564 108.377 1.02817C108.084 0.975223 107.782 0.99715 107.5 1.09192C107.218 1.18669 106.964 1.35124 106.762 1.5703L96.0921 13.1579C95.8719 13.3974 95.722 13.693 95.659 14.0122C95.5959 14.3313 95.6221 14.6617 95.7347 14.967C95.7408 14.9811 96.1921 16.4924 94.4395 18.246L73.0835 39.3748L73.0684 39.3879L73.0563 39.4021L57.5446 54.7512C55.7496 53.7144 52.2415 50.8705 53.6377 44.9394C55.0914 38.758 52.9058 36.6288 51.4732 35.91C48.6707 34.5047 44.6265 36.2553 41.1647 40.3732C38.5056 43.5351 37.2326 47.1019 36.0019 50.5505C33.7103 56.9661 31.9011 62.0341 21.6603 62.2986C13.2215 62.5166 5.26933 67.8258 2.32145 75.2097C0.131749 80.6965 -1.2271 92.2124 14.2805 107.719C24.805 118.245 33.4922 121 39.7039 121C42.1298 121.014 44.5363 120.566 46.794 119.678C54.1778 116.73 59.487 108.775 59.705 100.339C59.9695 90.0984 65.0375 88.2893 71.4531 85.9977C74.9017 84.767 78.4685 83.494 81.6304 80.8348C85.7473 77.3741 87.4988 73.3279 86.0936 70.5264C85.3748 69.0938 83.2456 66.9081 77.0642 68.3619C71.1281 69.7611 68.2973 66.2853 67.2504 64.457L103.751 27.5601C105.467 25.8438 106.912 26.2305 107.03 26.2648C107.335 26.3774 107.665 26.4036 107.984 26.3406C108.304 26.2775 108.599 26.1276 108.839 25.9074L120.429 15.2396C120.649 15.0377 120.814 14.7835 120.908 14.5007C121.003 14.2179 121.025 13.9157 120.971 13.6223ZM81.3548 45.1756L76.8239 40.6448L85.7079 31.8527L90.1418 36.2866L81.3548 45.1756ZM68.6617 58.007L63.9926 53.3378L74.3152 43.1303L78.8693 47.6844L68.6617 58.007ZM51.7195 75.1319L46.8677 70.28L61.4808 55.8233L66.1762 60.5187L51.7195 75.1319ZM77.8738 71.8004C81.3386 70.9847 82.6853 71.6116 82.9357 72.1104C83.3638 72.9644 82.5228 75.4681 79.3569 78.1293C76.6816 80.3785 73.4197 81.5435 70.2649 82.6722C63.5009 85.0881 56.5007 87.5867 56.1726 100.248C56.0232 106.031 52.615 113.551 45.4846 116.401C37.4082 119.632 27.2118 115.657 16.7792 105.225C6.34651 94.7938 2.37799 84.5944 5.60349 76.515C8.4494 69.3846 15.9695 65.9763 21.7562 65.8269C34.4179 65.4988 36.9166 58.5017 39.3324 51.7347C40.4591 48.5798 41.6241 45.318 43.8754 42.6427C46.5375 39.4768 49.0442 38.6378 49.8943 39.0639C50.393 39.3142 51.0189 40.662 50.2042 44.1257C48.6162 50.8745 51.8891 55.1722 54.9723 57.2973L43.1202 69.0171C42.9547 69.1808 42.8232 69.3756 42.7333 69.5903C42.6434 69.805 42.5968 70.0354 42.5962 70.2682C42.5957 70.501 42.6411 70.7316 42.73 70.9467C42.8189 71.1618 42.9495 71.3573 43.1142 71.5218L50.4839 78.8864C50.6477 79.0507 50.8423 79.181 51.0566 79.2699C51.2709 79.3587 51.5007 79.4044 51.7327 79.4043C51.9654 79.4036 52.1957 79.357 52.4103 79.2671C52.625 79.1771 52.8198 79.0457 52.9835 78.8804L64.7023 67.0333C66.8284 70.1145 71.126 73.3864 77.8738 71.8004ZM92.6324 33.7748L88.2247 29.3672L95.6812 21.9904L100.009 26.3183L92.6324 33.7748ZM107.103 22.7021C105.513 22.5888 103.933 23.0254 102.627 23.9388L98.0607 19.3726C98.9746 18.0667 99.4112 16.4861 99.2974 14.8963L108.631 4.75441C110.639 5.41944 112.463 6.54474 113.959 8.04045C115.455 9.53617 116.58 11.3609 117.245 13.3689L107.103 22.7021Z" fill="white" stroke="white" stroke-miterlimit="10"/>
<path d="M43.5645 86.0865C43.7285 86.2506 43.9233 86.3807 44.1376 86.4695C44.352 86.5583 44.5818 86.604 44.8138 86.604C45.0458 86.604 45.2755 86.5583 45.4899 86.4695C45.7043 86.3807 45.899 86.2506 46.0631 86.0865C46.2271 85.9224 46.3573 85.7277 46.4461 85.5133C46.5349 85.299 46.5806 85.0692 46.5806 84.8372C46.5806 84.6052 46.5349 84.3754 46.4461 84.1611C46.3573 83.9467 46.2271 83.7519 46.0631 83.5879L38.4117 75.9365C38.0804 75.6052 37.631 75.419 37.1624 75.419C36.6938 75.419 36.2445 75.6052 35.9131 75.9365C35.5818 76.2679 35.3956 76.7173 35.3956 77.1858C35.3956 77.6544 35.5818 78.1038 35.9131 78.4352L43.5645 86.0865ZM50.7756 90.7991L45.3837 96.19L39.8241 96.6413L24.7819 81.5991C24.618 81.4349 24.4233 81.3047 24.209 81.2158C23.9947 81.127 23.765 81.0812 23.5331 81.0812C23.3011 81.0812 23.0714 81.127 22.8571 81.2158C22.6428 81.3047 22.4481 81.4349 22.2842 81.5991L17.4384 86.4449C17.1073 86.7764 16.9213 87.2257 16.9213 87.6942C16.9213 88.1627 17.1073 88.6121 17.4384 88.9435L33.0601 104.565C33.3917 104.896 33.841 105.082 34.3094 105.082C34.7779 105.082 35.2272 104.896 35.5588 104.565L39.9412 100.183L46.3145 99.6649C46.7339 99.6324 47.1278 99.4509 47.425 99.1531L53.2803 93.2977C53.6115 92.9665 53.7976 92.5173 53.7976 92.0489C53.7976 91.5805 53.6115 91.1313 53.2803 90.8001C52.9491 90.4689 52.4999 90.2828 52.0315 90.2828C51.5631 90.2828 51.1139 90.4689 50.7827 90.8001L50.7756 90.7991ZM34.312 100.811L21.1879 87.6866L23.53 85.3445L36.6541 98.4686L34.312 100.811Z" fill="white" stroke="white" stroke-miterlimit="10"/>
</svg>
