<svg width="59" height="45" viewBox="0 0 59 45" fill="none" xmlns="http://www.w3.org/2000/svg">
<g clip-path="url(#clip0_135_2)">
<path d="M29.5 0C21.4944 0 20.4878 0.028125 17.3423 0.135C14.1969 0.2475 12.0544 0.624375 10.1775 1.18125C8.20872 1.74605 6.42544 2.63201 4.95231 3.77719C3.45178 4.90133 2.29033 6.2613 1.54875 7.7625C0.818625 9.19125 0.320813 10.8281 0.177 13.2187C0.036875 15.6234 0 16.3884 0 22.5028C0 28.6116 0.036875 29.3766 0.177 31.7756C0.3245 34.1719 0.818625 35.8059 1.54875 37.2375C2.30469 38.7169 3.31138 39.9712 4.95231 41.2228C6.58956 42.4744 8.23419 43.245 10.1738 43.8187C12.0544 44.3756 14.1932 44.7553 17.3349 44.865C20.4841 44.9719 21.4871 45 29.5 45C37.5129 45 38.5123 44.9719 41.6614 44.865C44.7994 44.7525 46.9493 44.3756 48.8262 43.8187C50.7937 43.2537 52.5757 42.3677 54.0477 41.2228C55.6886 39.9712 56.6953 38.7169 57.4512 37.2375C58.1777 35.8059 58.6755 34.1719 58.823 31.7756C58.9631 29.3766 59 28.6116 59 22.5C59 16.3884 58.9631 15.6234 58.823 13.2216C58.6755 10.8281 58.1777 9.19125 57.4512 7.7625C56.7098 6.26126 55.5483 4.90128 54.0477 3.77719C52.575 2.63159 50.7916 1.74557 48.8225 1.18125C46.9419 0.624375 44.7957 0.244688 41.6577 0.135C38.5086 0.028125 37.5093 0 29.4926 0H29.5037H29.5ZM26.8561 4.05563H29.5037C37.3802 4.05563 38.3131 4.07531 41.4217 4.185C44.2979 4.28344 45.8614 4.65188 46.9013 4.95844C48.2767 5.36625 49.2613 5.85562 50.2938 6.64312C51.3263 7.43062 51.9643 8.17875 52.4989 9.23063C52.9046 10.0209 53.3839 11.2134 53.513 13.4072C53.6568 15.7781 53.6863 16.4897 53.6863 22.4944C53.6863 28.4991 53.6568 29.2134 53.513 31.5844C53.3839 33.7781 52.9009 34.9678 52.4989 35.7609C52.026 36.7379 51.2711 37.6212 50.2901 38.3456C49.2576 39.1331 48.2768 39.6197 46.8976 40.0275C45.8651 40.3369 44.3016 40.7025 41.4217 40.8038C38.3131 40.9106 37.3802 40.9359 29.5037 40.9359C21.6272 40.9359 20.6906 40.9106 17.582 40.8038C14.7058 40.7025 13.1459 40.3369 12.1061 40.0275C10.8247 39.6673 9.6654 39.0926 8.71356 38.3456C7.73177 37.6201 6.97573 36.7359 6.50106 35.7581C6.09913 34.9678 5.61606 33.7753 5.487 31.5816C5.34688 29.2106 5.31738 28.4991 5.31738 22.4887C5.31738 16.4812 5.34688 15.7725 5.487 13.4016C5.61975 11.2078 6.09913 10.0153 6.50475 9.22219C7.03944 8.17313 7.68106 7.42219 8.71356 6.63469C9.74606 5.84719 10.7269 5.36063 12.1061 4.95281C13.1459 4.64344 14.7058 4.27781 17.582 4.17656C20.3034 4.08094 21.358 4.05281 26.8561 4.05V4.05563ZM45.2493 7.79062C44.7844 7.79062 44.3241 7.86046 43.8946 7.99615C43.4651 8.13184 43.0749 8.33072 42.7462 8.58144C42.4174 8.83215 42.1567 9.1298 41.9788 9.45738C41.8009 9.78496 41.7093 10.1361 41.7093 10.4906C41.7093 10.8452 41.8009 11.1963 41.9788 11.5239C42.1567 11.8514 42.4174 12.1491 42.7462 12.3998C43.0749 12.6505 43.4651 12.8494 43.8946 12.9851C44.3241 13.1208 44.7844 13.1906 45.2493 13.1906C46.1882 13.1906 47.0886 12.9062 47.7525 12.3998C48.4163 11.8935 48.7893 11.2067 48.7893 10.4906C48.7893 9.77454 48.4163 9.08778 47.7525 8.58144C47.0886 8.07509 46.1882 7.79062 45.2493 7.79062ZM29.5037 10.9462C27.4943 10.9223 25.4987 11.2036 23.6331 11.7735C21.7675 12.3435 20.0693 13.1908 18.6372 14.2662C17.2051 15.3416 16.0678 16.6235 15.2915 18.0373C14.5152 19.4511 14.1154 20.9686 14.1154 22.5014C14.1154 24.0342 14.5152 25.5517 15.2915 26.9655C16.0678 28.3793 17.2051 29.6613 18.6372 30.7366C20.0693 31.812 21.7675 32.6593 23.6331 33.2293C25.4987 33.7993 27.4943 34.0805 29.5037 34.0566C33.4808 34.0092 37.274 32.771 40.0646 30.6091C42.8552 28.4473 44.4193 25.5352 44.4193 22.5014C44.4193 19.4676 42.8552 16.5555 40.0646 14.3937C37.274 12.2318 33.4808 10.9936 29.5037 10.9462ZM29.5037 14.9991C32.112 14.9991 34.6134 15.7893 36.4578 17.196C38.3021 18.6027 39.3383 20.5106 39.3383 22.5C39.3383 24.4894 38.3021 26.3973 36.4578 27.804C34.6134 29.2107 32.112 30.0009 29.5037 30.0009C26.8954 30.0009 24.3939 29.2107 22.5496 27.804C20.7053 26.3973 19.6691 24.4894 19.6691 22.5C19.6691 20.5106 20.7053 18.6027 22.5496 17.196C24.3939 15.7893 26.8954 14.9991 29.5037 14.9991Z" fill="white"/>
</g>
<defs>
<clipPath id="clip0_135_2">
<rect width="59" height="45" fill="white"/>
</clipPath>
</defs>
</svg>
